
<svg xmlns="http://www.w3.org/2000/svg" version="1.1" xmlns:xlink="http://www.w3.org/1999/xlink" preserveAspectRatio="none" x="0px" y="0px" width="240px" height="100px" viewBox="0 0 240 100">
<defs>
<g id="Layer1_0_FILL">
<path fill="#000000" stroke="none" d="
M 37.15 68.3
L 36.95 68.35
Q 36.2 68.1 35.9 67.95 33.2201171875 66.6646484375 30.6 66.2 28.4294921875 65.81875 26.3 66 19.6 66.55 14.6 69.5 10.4 72.1 7.8 75 4.8 78.4 3.7 82.65 2.9 85.65 4.2 88.9 5.5 92.15 8.1 93.8 11.3 95.7 14.9 96.2 18.2 96.55 22.1 95.75 26.683203125 94.828125 30.6 92.6 34.11875 90.6548828125 37.1 87.65 41.7 82.9 41.7 77.1
L 41.75 3.8 37.15 3.8 37.15 68.3
M 175.5 3.8
L 170.9 3.8 170.9 68.3 170.7 68.35
Q 169.95 68.1 169.65 67.95 164.75 65.6 160.05 66 153.35 66.55 148.35 69.5 144.15 72.1 141.55 75 138.55 78.4 137.45 82.65 136.65 85.65 137.95 88.9 139.25 92.15 141.85 93.8 145.05 95.7 148.65 96.2 151.95 96.55 155.85 95.75 164.55 94 170.85 87.65 175.45 82.9 175.45 77.1
L 175.5 3.8 Z"/>
</g>

<g id="Layer0_0_FILL">
<path fill="#000000" stroke="none" d="
M 175.5 26
L 175.5 3.8 38.2 3.8 38.2 26 175.5 26 Z"/>
</g>
</defs>

<g transform="matrix( 1, 0, 0, 1, 0,0) ">
<use xlink:href="#Layer1_0_FILL"/>
</g>

<g transform="matrix( 1, 0, 0, 1, 0,0) ">
<use xlink:href="#Layer0_0_FILL"/>
</g>
</svg>
