
<svg xmlns="http://www.w3.org/2000/svg" version="1.1" xmlns:xlink="http://www.w3.org/1999/xlink" preserveAspectRatio="none" x="0px" y="0px" width="180px" height="100px" viewBox="0 0 180 100">
<defs>
<g id="Layer1_0_FILL">
<path fill="#000000" stroke="none" d="
M 55.8 72
Q 53.4 72 51.7 73.7 50 75.4 50 77.8 50 80.2 51.7 81.85 53.4 83.6 55.8 83.6 58.2 83.6 59.85 81.85 61.6 80.2 61.6 77.8 61.6 75.4 59.85 73.7 58.2 72 55.8 72
M 45.5 3.8
L 40.9 3.8 40.9 68.3 40.7 68.35
Q 39.95 68.1 39.65 67.95 34.75 65.6 30.05 66 23.35 66.55 18.35 69.5 14.15 72.1 11.55 75 11.45 75.1 11.4 75.2 8.5 78.5 7.45 82.65 6.65 85.65 7.95 88.9 9.15 91.85 11.4 93.5 11.6 93.65 11.85 93.8 15.05 95.7 18.65 96.2 21.95 96.55 25.85 95.75 34.55 94 40.85 87.65 45.45 82.9 45.45 77.1
L 45.5 3.8 Z"/>
</g>
</defs>

<g transform="matrix( 1, 0, 0, 1, 0,0) ">
<use xlink:href="#Layer1_0_FILL"/>
</g>
</svg>
