
<svg xmlns="http://www.w3.org/2000/svg" version="1.1" xmlns:xlink="http://www.w3.org/1999/xlink" preserveAspectRatio="none" x="0px" y="0px" width="240px" height="100px" viewBox="0 0 240 100">
<defs>
<g id="Layer1_0_FILL">
<path fill="#000000" stroke="none" d="
M 233 3.8
L 228.4 3.8 228.4 68.3 228.2 68.35
Q 227.45 68.1 227.15 67.95 222.25 65.6 217.55 66 210.85 66.55 205.85 69.5 201.65 72.1 199.05 75 196.05 78.4 194.95 82.65 194.15 85.65 195.45 88.9 196.75 92.15 199.35 93.8 202.55 95.7 206.15 96.2 209.45 96.55 213.35 95.75 222.05 94 228.35 87.65 232.95 82.9 232.95 77.1
L 233 3.8
M 76.85 73.7
Q 75.2 72 72.8 72 72.0673828125 72 71.4 72.15 69.8810546875 72.5189453125 68.7 73.7 67 75.4 67 77.8 67 80.2 68.7 81.85 69.8810546875 83.0658203125 71.4 83.4 72.0673828125 83.6 72.8 83.6 75.2 83.6 76.85 81.85 78.6 80.2 78.6 77.8 78.6 75.4 76.85 73.7
M 63 3.8
L 58.4 3.8 58.4 68.3 58.2 68.35
Q 57.45 68.1 57.15 67.95 52.25 65.6 47.55 66 40.85 66.55 35.85 69.5 32.8041015625 71.385546875 30.6 73.4 29.764453125 74.203125 29.05 75 26.05 78.4 24.95 82.65 24.15 85.65 25.45 88.9 26.75 92.15 29.35 93.8 29.967578125 94.1666015625 30.6 94.45 33.2447265625 95.796484375 36.15 96.2 39.45 96.55 43.35 95.75 52.05 94 58.35 87.65 60.112890625 85.8294921875 61.2 83.85 61.8044921875 82.7541015625 62.2 81.6 62.95 79.4416015625 62.95 77.1
L 63 3.8 Z"/>
</g>

<g id="Layer0_0_FILL">
<path fill="#000000" stroke="none" d="
M 228.4 23
L 228.4 3.8 58.5 3.8 58.5 23 228.4 23
M 228.8 48
L 228.8 28.8 183.75 28.8 183.75 48 228.8 48 Z"/>
</g>
</defs>

<g transform="matrix( 1, 0, 0, 1, 0,0) ">
<use xlink:href="#Layer1_0_FILL"/>
</g>

<g transform="matrix( 1, 0, 0, 1, 0,0) ">
<use xlink:href="#Layer0_0_FILL"/>
</g>
</svg>
